<?xml version="1.0" encoding="utf-8" ?>
<svg baseProfile="full" height="94.35933392494917" version="1.1" width="99.22380549833179" xmlns="http://www.w3.org/2000/svg" xmlns:ev="http://www.w3.org/2001/xml-events" xmlns:xlink="http://www.w3.org/1999/xlink"><defs /><rect fill="white" height="94.35933392494917" width="99.22380549833179" x="0" y="0" /><path d="M31.022678492590785, 47.237577801570296 m-0.46328287571668625, -1.2740278244018555 l0.34746214747428894, -4.169545769691467 3.9379042387008667, -14.82505202293396 l0.34746214747428894, 1.9689521193504333 4.285366535186768, 8.454912304878235 l1.1582071334123611, 3.8220837712287903 0.11582071892917156, 1.505669355392456 l0.9265657514333725, -2.4322350323200226 2.0847728848457336, -3.242979943752289 l4.517008066177368, -3.8220837712287903 4.285366535186768, -0.11582071892917156 l2.4322350323200226, 0.5791035667061806 6.370139122009277, 2.7796971797943115 l1.3898485898971558, 1.2740278244018555 2.4322350323200226, -5.559394359588623 l4.053725004196167, -7.180884480476379 1.7373107373714447, 10.423864126205444 l0.11582071892917156, 4.169545769691467 -0.6949242949485779, 2.200593650341034 l-5.096111297607422, 9.61311936378479 -2.200593650341034, 6.1384981870651245 l-1.1582071334123611, 2.200593650341034 -1.853131502866745, 2.3164142668247223 l-2.6638764142990112, 1.9689521193504333 -6.022677421569824, 2.7796971797943115 l-2.895517945289612, 0.9265657514333725 -3.242979943752289, 0.0 l-1.853131502866745, -0.34746214747428894 -2.3164142668247223, -1.0423864424228668 l-4.517008066177368, -3.5904422402381897 -5.096111297607422, -5.791035890579224 l-2.200593650341034, -4.169545769691467 -0.34746214747428894, -2.7796971797943115 l0.11582071892917156, -4.9802908301353455 1.2740278244018555, -3.242979943752289 m15.751616954803467, 5.791035890579224 l-10.771327018737793, -0.34746214747428894 -3.8220837712287903, 0.6949242949485779 l-3.1271594762802124, 1.7373107373714447 -1.9689521193504333, 1.9689521193504333 l-1.0423864424228668, 2.0847728848457336 -0.34746214747428894, 2.200593650341034 m21.542654037475586, -4.632828533649445 l-5.906856656074524, 0.5791035667061806 -5.675215125083923, 2.4322350323200226 l-2.200593650341034, 1.853131502866745 -1.6214899718761444, 2.3164142668247223 l-0.6949242949485779, 2.200593650341034 -0.23164143785834312, 1.9689521193504333 l0.34746214747428894, 2.548055648803711 m14.82505202293396, -10.076402425765991 l-3.70626300573349, 1.505669355392456 -1.7373107373714447, 1.2740278244018555 l-1.505669355392456, 1.853131502866745 -0.9265657514333725, 2.7796971797943115 l-0.5791035667061806, 6.8334221839904785 m26.175482273101807, -20.963549613952637 l0.6949242949485779, -0.34746214747428894 2.548055648803711, 0.11582071892917156 l1.7373107373714447, 0.9265657514333725 2.200593650341034, 1.853131502866745 l3.9379042387008667, 4.864470064640045 m-17.720569372177124, -7.41252601146698 l4.632828533649445, 3.358800709247589 3.9379042387008667, 3.70626300573349 l2.200593650341034, 2.895517945289612 0.5791035667061806, 2.7796971797943115 m-14.014307260513306, -10.076402425765991 l1.505669355392456, 0.6949242949485779 1.505669355392456, 1.3898485898971558 l3.70626300573349, 4.517008066177368 1.3898485898971558, 3.4746214747428894 l0.11582071892917156, 4.748649299144745 " fill="none" stroke="black" stroke-width="1" /></svg>